<svg width="378" height="286" viewBox="0 0 378 286" fill="none" xmlns="http://www.w3.org/2000/svg">
    <circle cx="189" cy="134.5" r="133.953" fill="#EAECF0"/>
    <circle cx="50.8609" cy="42.4077" r="12.5581" fill="#F2F4F7"/>
    <circle cx="44.5811" cy="234.966" r="16.7442" fill="#F2F4F7"/>
    <circle cx="343.884" cy="75.8956" r="16.7442" fill="#F2F4F7"/>
    <circle cx="320.861" cy="19.3841" r="10.4651" fill="#F2F4F7"/>
    <g filter="url(#filter0_dd_1114_4755)">
        <path d="M193.186 34.0352C165.001 34.0352 140.07 47.9624 124.898 69.3102C119.943 68.1418 114.776 67.5235 109.465 67.5235C72.4748 67.5235 42.4883 97.51 42.4883 134.5C42.4883 171.491 72.4748 201.477 109.465 201.477H276.907C309.273 201.477 335.512 175.239 335.512 142.872C335.512 110.506 309.273 84.2677 276.907 84.2677C274.608 84.2677 272.34 84.4001 270.11 84.6577C257.28 54.8809 227.668 34.0352 193.186 34.0352Z" fill="#F9FAFB"/>
        <circle cx="109.465" cy="134.5" r="66.9767" fill="url(#paint0_linear_1114_4755)"/>
        <circle cx="193.186" cy="117.756" r="83.7209" fill="url(#paint1_linear_1114_4755)"/>
        <circle cx="276.907" cy="142.872" r="58.6047" fill="url(#paint2_linear_1114_4755)"/>
    </g>
    <rect x="130.395" y="126.129" width="117.209" height="117.209" rx="58.6047" fill="#7B8189" fill-opacity="0.4"/>
    <g clip-path="url(#clip0_1114_4755)">
        <path d="M189 155.001C172.982 155.001 160 167.983 160 184.001C160 200.019 172.982 213.001 189 213.001C205.018 213.001 218 200.019 218 184.001C218 167.983 205.018 155.001 189 155.001ZM167.25 184.001C167.25 171.982 176.992 162.251 189 162.251C193.769 162.251 198.176 163.803 201.755 166.408L171.407 196.756C168.802 193.177 167.25 188.77 167.25 184.001ZM189 205.751C184.231 205.751 179.824 204.199 176.245 201.594L206.593 171.246C209.198 174.837 210.75 179.232 210.75 184.001C210.75 196.02 201.008 205.751 189 205.751Z" fill="#F8537F"/>
    </g>
    <defs>
        <filter id="filter0_dd_1114_4755" x="0.627815" y="34.0352" width="376.744" height="251.162" filterUnits="userSpaceOnUse" color-interpolation-filters="sRGB">
            <feFlood flood-opacity="0" result="BackgroundImageFix"/>
            <feColorMatrix in="SourceAlpha" type="matrix" values="0 0 0 0 0 0 0 0 0 0 0 0 0 0 0 0 0 0 127 0" result="hardAlpha"/>
            <feMorphology radius="8.37209" operator="erode" in="SourceAlpha" result="effect1_dropShadow_1114_4755"/>
            <feOffset dy="16.7442"/>
            <feGaussianBlur stdDeviation="8.37209"/>
            <feColorMatrix type="matrix" values="0 0 0 0 0.0627451 0 0 0 0 0.0941176 0 0 0 0 0.156863 0 0 0 0.03 0"/>
            <feBlend mode="normal" in2="BackgroundImageFix" result="effect1_dropShadow_1114_4755"/>
            <feColorMatrix in="SourceAlpha" type="matrix" values="0 0 0 0 0 0 0 0 0 0 0 0 0 0 0 0 0 0 127 0" result="hardAlpha"/>
            <feMorphology radius="8.37209" operator="erode" in="SourceAlpha" result="effect2_dropShadow_1114_4755"/>
            <feOffset dy="41.8605"/>
            <feGaussianBlur stdDeviation="25.1163"/>
            <feColorMatrix type="matrix" values="0 0 0 0 0.0627451 0 0 0 0 0.0941176 0 0 0 0 0.156863 0 0 0 0.08 0"/>
            <feBlend mode="normal" in2="effect1_dropShadow_1114_4755" result="effect2_dropShadow_1114_4755"/>
            <feBlend mode="normal" in="SourceGraphic" in2="effect2_dropShadow_1114_4755" result="shape"/>
        </filter>
        <linearGradient id="paint0_linear_1114_4755" x1="58.0364" y1="90.2477" x2="176.442" y2="201.477" gradientUnits="userSpaceOnUse">
            <stop stop-color="#D0D5DD"/>
            <stop offset="0.350715" stop-color="white" stop-opacity="0"/>
        </linearGradient>
        <linearGradient id="paint1_linear_1114_4755" x1="128.9" y1="62.4405" x2="276.907" y2="201.477" gradientUnits="userSpaceOnUse">
            <stop stop-color="#D0D5DD"/>
            <stop offset="0.350715" stop-color="white" stop-opacity="0"/>
        </linearGradient>
        <linearGradient id="paint2_linear_1114_4755" x1="231.907" y1="104.151" x2="335.512" y2="201.477" gradientUnits="userSpaceOnUse">
            <stop stop-color="#D0D5DD"/>
            <stop offset="0.350715" stop-color="white" stop-opacity="0"/>
        </linearGradient>
        <clipPath id="clip0_1114_4755">
            <rect width="58" height="58" fill="white" transform="translate(160 155.001)"/>
        </clipPath>
    </defs>
</svg>
