<svg width="720" height="96" viewBox="0 0 720 96" fill="none" xmlns="http://www.w3.org/2000/svg">
    <g clip-path="url(#clip0_1114_4635)">
        <path d="M52.3926 45.2325C53.7924 45.2325 55.193 45.2325 56.5928 45.2325C56.9697 45.2325 57.0138 45.267 57.1415 45.6313C57.6732 47.1546 57.7766 48.7087 57.5913 50.3118C57.0795 54.7332 53.7933 58.3055 50.3973 59.7935C48.9256 60.4378 47.3873 60.7794 45.7933 60.9081C43.0226 61.1328 40.4165 60.5819 37.9192 59.3558C36.0949 58.4604 34.8228 57.0567 33.8693 55.2969C32.9247 53.5533 32.3076 51.7047 32.1025 49.7328C31.632 45.1972 32.7709 41.141 35.7314 37.6449C38.2287 34.6961 41.4213 32.9842 45.178 32.2783C46.7873 31.9756 48.4048 31.9176 50.0276 32.1152C52.1101 32.3689 54.0631 33.0404 55.9064 34.0427C57.361 34.8338 58.6591 35.8297 59.7962 37.0386C59.87 37.1165 60.0373 37.1772 59.9086 37.3485C59.7845 37.5144 59.6784 37.5986 59.449 37.4817C57.9134 36.7042 56.3193 36.0744 54.6578 35.6258C53.1348 35.2144 51.5884 34.9652 50.0087 34.9072C47.9937 34.8329 46.0119 35.0314 44.1003 35.692C40.8402 36.8175 38.3447 38.8864 36.7066 41.9575C36.0517 43.1845 35.6855 44.5112 35.5092 45.8932C35.1575 48.6598 35.6325 51.2434 37.2139 53.5678C38.2296 55.0594 39.471 56.3245 41.0786 57.1772C42.4459 57.9031 43.9122 58.1895 45.4523 58.1922C47.5385 58.1958 49.4258 57.6131 51.0801 56.3245C52.6967 55.0649 53.858 53.4845 54.3321 51.4473C54.414 51.0957 54.4473 50.7332 54.5228 50.3807C54.5696 50.165 54.4895 50.1179 54.2961 50.1188C53.3453 50.1242 52.3944 50.1206 51.4436 50.1206C50.4252 50.1206 49.4069 50.1251 48.3886 50.1206C47.7301 50.1179 47.1121 49.9774 46.5831 49.5479C45.3408 48.5393 45.4802 46.5094 46.8512 45.6267C47.2758 45.354 47.7382 45.2343 48.2356 45.2343C49.621 45.2334 51.0055 45.2343 52.3908 45.2343V45.2316L52.3926 45.2325Z" fill="#1355FF"/>
        <path d="M56.6796 41.6172C56.7309 41.6363 56.7858 41.6489 56.8317 41.6761C58.6785 42.75 59.9487 44.3141 60.6603 46.3286C61.4447 48.5506 61.4357 50.8089 60.878 53.078C60.7503 53.5973 60.5901 54.1075 60.4633 54.6548C60.4822 54.6222 60.5002 54.5878 60.5209 54.5561C61.5878 52.9367 62.1896 51.165 62.2921 49.2176C62.4487 46.2353 61.5248 43.5928 59.8462 41.1804C59.7562 41.0508 59.6663 40.9213 59.5781 40.7908C59.5718 40.7808 59.5781 40.7627 59.5781 40.7246C59.6375 40.7491 59.6924 40.7645 59.7382 40.7926C62.1212 42.2498 63.5165 44.3703 63.9105 47.1478C64.1327 48.7165 63.9132 50.2634 63.5678 51.7903C62.8463 54.9811 61.2126 57.6299 58.8144 59.8193C57.115 61.3707 55.2016 62.5443 53.0057 63.2357C51.0258 63.8592 48.9945 64.093 46.9309 63.967C44.2492 63.8039 41.769 62.9802 39.4967 61.532C39.467 61.513 39.4409 61.4858 39.4238 61.4296C39.4661 61.4387 39.5111 61.4414 39.5498 61.4586C41.1195 62.2017 42.7721 62.6168 44.5029 62.711C46.7788 62.8352 48.9945 62.528 51.0869 61.6036C54.6394 60.0332 57.1996 57.475 58.5193 53.7513C59.1121 52.0785 59.3757 50.3458 59.2561 48.5696C59.1067 46.3431 58.3394 44.3268 57.133 42.4691C56.9981 42.2606 56.8632 42.0522 56.7309 41.842C56.694 41.7831 56.6698 41.7169 56.6392 41.6544C56.6527 41.6417 56.6662 41.629 56.6796 41.6163V41.6172Z" fill="#1355FF"/>
        <path d="M49.223 56.0603C49.1816 56.0848 49.1429 56.1147 49.0998 56.1319C48.3081 56.4509 47.4859 56.6367 46.6358 56.6902C42.6569 56.9394 39.6379 54.634 38.1815 51.4586C37.6292 50.2543 37.2954 48.9946 37.2576 47.6643C37.2028 45.7296 37.7569 43.9598 38.7213 42.3086C40.0616 40.0132 42.029 38.4872 44.4912 37.5882C46.1698 36.9756 47.906 36.6485 49.6935 36.5787C52.3625 36.4736 54.9156 36.9983 57.3894 37.9761C57.7708 38.1265 58.1532 38.276 58.5751 38.4409C58.4986 38.5289 58.4527 38.5914 58.397 38.6448C57.3229 39.6843 56.2451 40.7201 55.1764 41.7658C55.0226 41.9163 54.9282 41.8601 54.8022 41.7504C53.9116 40.9765 52.9365 40.3413 51.8372 39.9045C48.3891 38.5325 44.4921 39.3816 41.9679 42.0857C40.6743 43.4713 39.852 45.1007 39.6694 47.0091C39.4436 49.368 40.1309 51.455 41.6593 53.2448C42.8953 54.6911 44.4507 55.6208 46.3227 55.9788C47.2196 56.1501 48.1237 56.1446 49.0278 56.0359C49.089 56.0286 49.1501 56.0232 49.2113 56.0177C49.2158 56.0322 49.2194 56.0477 49.2239 56.0622L49.223 56.0603Z" fill="#1355FF"/>
    </g>
    <path d="M81.34 56.3C80.4067 56.3 79.53 56.1367 78.71 55.81C77.8967 55.4767 77.18 54.99 76.56 54.35C75.9467 53.71 75.4667 52.9267 75.12 52C74.7733 51.0667 74.6 50 74.6 48.8C74.6 47.2267 74.8933 45.8833 75.48 44.77C76.0667 43.65 76.87 42.7933 77.89 42.2C78.91 41.6 80.06 41.3 81.34 41.3C83.1133 41.3 84.5167 41.7133 85.55 42.54C86.59 43.36 87.2933 44.5133 87.66 46L85.2 46.39C84.9267 45.5367 84.48 44.8567 83.86 44.35C83.24 43.8367 82.45 43.58 81.49 43.58C80.5233 43.5667 79.72 43.7767 79.08 44.21C78.44 44.6433 77.9567 45.2533 77.63 46.04C77.31 46.8267 77.15 47.7467 77.15 48.8C77.15 49.8533 77.31 50.77 77.63 51.55C77.95 52.3233 78.43 52.9267 79.07 53.36C79.7167 53.7933 80.5233 54.0167 81.49 54.03C82.2167 54.0367 82.8533 53.9067 83.4 53.64C83.9467 53.3667 84.3933 52.9567 84.74 52.41C85.0867 51.8567 85.32 51.1667 85.44 50.34H82.9V48.45H88C88.0133 48.5567 88.0233 48.7133 88.03 48.92C88.0367 49.1267 88.04 49.25 88.04 49.29C88.04 50.65 87.77 51.86 87.23 52.92C86.6967 53.9733 85.93 54.8 84.93 55.4C83.93 56 82.7333 56.3 81.34 56.3ZM94.8184 56.3C93.7384 56.3 92.7951 56.0567 91.9884 55.57C91.1818 55.0833 90.5551 54.4133 90.1084 53.56C89.6684 52.7 89.4484 51.7133 89.4484 50.6C89.4484 49.4667 89.6751 48.4733 90.1284 47.62C90.5818 46.7667 91.2118 46.1 92.0184 45.62C92.8251 45.14 93.7584 44.9 94.8184 44.9C95.9051 44.9 96.8518 45.1433 97.6584 45.63C98.4651 46.1167 99.0918 46.79 99.5384 47.65C99.9851 48.5033 100.208 49.4867 100.208 50.6C100.208 51.72 99.9818 52.71 99.5284 53.57C99.0818 54.4233 98.4551 55.0933 97.6484 55.58C96.8418 56.06 95.8984 56.3 94.8184 56.3ZM94.8184 54.04C95.7784 54.04 96.4918 53.72 96.9584 53.08C97.4251 52.44 97.6584 51.6133 97.6584 50.6C97.6584 49.5533 97.4218 48.72 96.9484 48.1C96.4751 47.4733 95.7651 47.16 94.8184 47.16C94.1718 47.16 93.6384 47.3067 93.2184 47.6C92.8051 47.8867 92.4984 48.29 92.2984 48.81C92.0984 49.3233 91.9984 49.92 91.9984 50.6C91.9984 51.6467 92.2351 52.4833 92.7084 53.11C93.1884 53.73 93.8918 54.04 94.8184 54.04ZM107.182 56.3C106.102 56.3 105.158 56.0567 104.352 55.57C103.545 55.0833 102.918 54.4133 102.472 53.56C102.032 52.7 101.812 51.7133 101.812 50.6C101.812 49.4667 102.038 48.4733 102.492 47.62C102.945 46.7667 103.575 46.1 104.382 45.62C105.188 45.14 106.122 44.9 107.182 44.9C108.268 44.9 109.215 45.1433 110.022 45.63C110.828 46.1167 111.455 46.79 111.902 47.65C112.348 48.5033 112.572 49.4867 112.572 50.6C112.572 51.72 112.345 52.71 111.892 53.57C111.445 54.4233 110.818 55.0933 110.012 55.58C109.205 56.06 108.262 56.3 107.182 56.3ZM107.182 54.04C108.142 54.04 108.855 53.72 109.322 53.08C109.788 52.44 110.022 51.6133 110.022 50.6C110.022 49.5533 109.785 48.72 109.312 48.1C108.838 47.4733 108.128 47.16 107.182 47.16C106.535 47.16 106.002 47.3067 105.582 47.6C105.168 47.8867 104.862 48.29 104.662 48.81C104.462 49.3233 104.362 49.92 104.362 50.6C104.362 51.6467 104.598 52.4833 105.072 53.11C105.552 53.73 106.255 54.04 107.182 54.04ZM113.384 56V55.67L119.104 47.31H113.964V45.2H122.854V45.54L117.154 53.89H122.614V56H113.384ZM125.248 43.56V41.35H127.658V43.56H125.248ZM125.248 56V45.2H127.658V56H125.248ZM130.654 56V45.2H132.784V47.83L132.524 47.49C132.657 47.13 132.834 46.8033 133.054 46.51C133.281 46.21 133.551 45.9633 133.864 45.77C134.131 45.59 134.424 45.45 134.744 45.35C135.071 45.2433 135.404 45.18 135.744 45.16C136.084 45.1333 136.414 45.1467 136.734 45.2V47.45C136.414 47.3567 136.044 47.3267 135.624 47.36C135.211 47.3933 134.837 47.51 134.504 47.71C134.171 47.89 133.897 48.12 133.684 48.4C133.477 48.68 133.324 49 133.224 49.36C133.124 49.7133 133.074 50.0967 133.074 50.51V56H130.654ZM138.842 43.56V41.35H141.252V43.56H138.842ZM138.842 56V45.2H141.252V56H138.842Z" fill="#1355FF"/>
    <defs>
        <clipPath id="clip0_1114_4635">
            <rect width="32" height="32" fill="white" transform="translate(32 32)"/>
        </clipPath>
    </defs>
</svg>
