<svg width="137" height="44" viewBox="0 0 137 44" fill="none" xmlns="http://www.w3.org/2000/svg">
<g clip-path="url(#clip0_1118_3961)">
<path d="M28.0399 18.1947C29.9645 18.1947 31.8904 18.1947 33.8151 18.1947C34.3333 18.1947 34.3939 18.2421 34.5696 18.743C35.3006 20.8376 35.4429 22.9745 35.1881 25.1788C34.4842 31.2582 29.9657 36.17 25.2963 38.216C23.2727 39.102 21.1576 39.5717 18.9657 39.7486C15.156 40.0577 11.5726 39.3001 8.13892 37.6142C5.63043 36.3831 3.88141 34.453 2.57027 32.0332C1.27149 29.6358 0.422961 27.0939 0.140941 24.3825C-0.505972 18.1461 1.05998 12.5689 5.13071 7.76167C8.56442 3.70707 12.9543 1.35331 18.1197 0.382652C20.3326 -0.0335242 22.5565 -0.11327 24.788 0.158365C27.6515 0.507255 30.3368 1.43057 32.8713 2.80868C34.8714 3.89647 36.6563 5.26586 38.2198 6.92807C38.3212 7.03523 38.5513 7.11872 38.3744 7.35422C38.2037 7.58224 38.0577 7.69812 37.7423 7.53739C35.6309 6.46829 33.439 5.60229 31.1544 4.98551C29.0603 4.41981 26.934 4.07715 24.762 3.9974C21.9913 3.89523 19.2663 4.16811 16.6378 5.07647C12.1552 6.62404 8.72398 9.46874 6.47154 13.6916C5.57105 15.3787 5.06763 17.2029 4.82519 19.1031C4.34155 22.9072 4.99465 26.4597 7.16917 29.6558C8.56566 31.7067 10.2726 33.4462 12.483 34.6187C14.3631 35.6168 16.3793 36.0105 18.497 36.0143C21.3654 36.0193 23.9605 35.2181 26.2352 33.4462C28.4579 31.7142 30.0548 29.5411 30.7067 26.74C30.8192 26.2566 30.865 25.7582 30.9689 25.2735C31.0332 24.9769 30.9231 24.9121 30.6572 24.9133C29.3498 24.9208 28.0423 24.9158 26.7349 24.9158C25.3347 24.9158 23.9345 24.9221 22.5343 24.9158C21.6289 24.9121 20.7791 24.719 20.0518 24.1283C18.3436 22.7415 18.5353 19.9504 20.4204 18.7367C21.0042 18.3617 21.64 18.1972 22.324 18.1972C24.2289 18.196 26.1325 18.1972 28.0374 18.1972V18.1935L28.0399 18.1947Z" fill="#1355FF"/>
<path d="M33.9357 13.2244C34.0062 13.2506 34.0817 13.268 34.1448 13.3054C36.6842 14.782 38.4307 16.9326 39.4091 19.7026C40.4877 22.7578 40.4754 25.863 39.7085 28.983C39.5328 29.697 39.3127 30.3985 39.1383 31.1511C39.1642 31.1063 39.189 31.0589 39.2174 31.0153C40.6844 28.7886 41.5119 26.3526 41.6529 23.6749C41.8682 19.5742 40.5978 15.9408 38.2897 12.6238C38.166 12.4456 38.0423 12.2675 37.9211 12.088C37.9125 12.0743 37.9211 12.0494 37.9211 11.9971C38.0028 12.0307 38.0782 12.0519 38.1413 12.0905C41.4179 14.0941 43.3364 17.0099 43.8782 20.829C44.1837 22.9859 43.8819 25.1128 43.4069 27.2124C42.4149 31.5997 40.1686 35.2419 36.871 38.2523C34.5344 40.3855 31.9035 41.9991 28.8841 42.9498C26.1616 43.8071 23.3687 44.1286 20.5311 43.9554C16.8439 43.7311 13.4337 42.5985 10.3092 40.6073C10.2684 40.5811 10.2325 40.5437 10.209 40.4665C10.2671 40.479 10.329 40.4827 10.3822 40.5064C12.5406 41.5281 14.8128 42.0988 17.1927 42.2284C20.3221 42.3991 23.3687 41.9767 26.2458 40.7057C31.1304 38.5463 34.6507 35.0288 36.4653 29.9088C37.2804 27.6086 37.6428 25.2262 37.4783 22.784C37.273 19.7225 36.2179 16.9501 34.5592 14.3957C34.3736 14.1091 34.1881 13.8225 34.0062 13.5334C33.9555 13.4524 33.9221 13.3615 33.8801 13.2755C33.8986 13.2581 33.9172 13.2406 33.9357 13.2232V13.2244Z" fill="#1355FF"/>
<path d="M23.6782 33.0819C23.6213 33.1155 23.5681 33.1566 23.5087 33.1803C22.4202 33.6189 21.2897 33.8744 20.1208 33.9479C14.6499 34.2905 10.4987 31.1206 8.49615 26.7545C7.73668 25.0985 7.27778 23.3665 7.22583 21.5374C7.15037 18.8771 7.91232 16.4436 9.23831 14.1733C11.0813 11.0171 13.7865 8.91875 17.172 7.68269C19.4801 6.84037 21.8673 6.39055 24.3251 6.2946C27.9951 6.15006 31.5055 6.87152 34.907 8.21599C35.4315 8.42283 35.9572 8.62843 36.5373 8.85521C36.4322 8.97607 36.3691 9.06205 36.2924 9.13557C34.8155 10.5648 33.3337 11.989 31.8642 13.4269C31.6527 13.6338 31.5228 13.5565 31.3496 13.4057C30.1251 12.3416 28.7842 11.4681 27.2727 10.8676C22.5316 8.98106 17.1732 10.1486 13.7024 13.8668C11.9237 15.7719 10.7931 18.0123 10.542 20.6365C10.2316 23.8799 11.1766 26.7495 13.2781 29.2104C14.9777 31.1991 17.1163 32.4775 19.6903 32.9697C20.9236 33.2052 22.1667 33.1978 23.4098 33.0482C23.4939 33.0383 23.578 33.0308 23.6621 33.0233C23.6683 33.0432 23.6733 33.0644 23.6794 33.0844L23.6782 33.0819Z" fill="#1355FF"/>
</g>
<path d="M62.808 31.36C61.688 31.36 60.636 31.164 59.652 30.772C58.676 30.372 57.816 29.788 57.072 29.02C56.336 28.252 55.76 27.312 55.344 26.2C54.928 25.08 54.72 23.8 54.72 22.36C54.72 20.472 55.072 18.86 55.776 17.524C56.48 16.18 57.444 15.152 58.668 14.44C59.892 13.72 61.272 13.36 62.808 13.36C64.936 13.36 66.62 13.856 67.86 14.848C69.108 15.832 69.952 17.216 70.392 19L67.44 19.468C67.112 18.444 66.576 17.628 65.832 17.02C65.088 16.404 64.14 16.096 62.988 16.096C61.828 16.08 60.864 16.332 60.096 16.852C59.328 17.372 58.748 18.104 58.356 19.048C57.972 19.992 57.78 21.096 57.78 22.36C57.78 23.624 57.972 24.724 58.356 25.66C58.74 26.588 59.316 27.312 60.084 27.832C60.86 28.352 61.828 28.62 62.988 28.636C63.86 28.644 64.624 28.488 65.28 28.168C65.936 27.84 66.472 27.348 66.888 26.692C67.304 26.028 67.584 25.2 67.728 24.208H64.68V21.94H70.8C70.816 22.068 70.828 22.256 70.836 22.504C70.844 22.752 70.848 22.9 70.848 22.948C70.848 24.58 70.524 26.032 69.876 27.304C69.236 28.568 68.316 29.56 67.116 30.28C65.916 31 64.48 31.36 62.808 31.36ZM78.9821 31.36C77.6861 31.36 76.5541 31.068 75.5861 30.484C74.6181 29.9 73.8661 29.096 73.3301 28.072C72.8021 27.04 72.5381 25.856 72.5381 24.52C72.5381 23.16 72.8101 21.968 73.3541 20.944C73.8981 19.92 74.6541 19.12 75.6221 18.544C76.5901 17.968 77.7101 17.68 78.9821 17.68C80.2861 17.68 81.4221 17.972 82.3901 18.556C83.3581 19.14 84.1101 19.948 84.6461 20.98C85.1821 22.004 85.4501 23.184 85.4501 24.52C85.4501 25.864 85.1781 27.052 84.6341 28.084C84.0981 29.108 83.3461 29.912 82.3781 30.496C81.4101 31.072 80.2781 31.36 78.9821 31.36ZM78.9821 28.648C80.1341 28.648 80.9901 28.264 81.5501 27.496C82.1101 26.728 82.3901 25.736 82.3901 24.52C82.3901 23.264 82.1061 22.264 81.5381 21.52C80.9701 20.768 80.1181 20.392 78.9821 20.392C78.2061 20.392 77.5661 20.568 77.0621 20.92C76.5661 21.264 76.1981 21.748 75.9581 22.372C75.7181 22.988 75.5981 23.704 75.5981 24.52C75.5981 25.776 75.8821 26.78 76.4501 27.532C77.0261 28.276 77.8701 28.648 78.9821 28.648ZM93.8181 31.36C92.5221 31.36 91.3901 31.068 90.4221 30.484C89.4541 29.9 88.7021 29.096 88.1661 28.072C87.6381 27.04 87.3741 25.856 87.3741 24.52C87.3741 23.16 87.6461 21.968 88.1901 20.944C88.7341 19.92 89.4901 19.12 90.4581 18.544C91.4261 17.968 92.5461 17.68 93.8181 17.68C95.1221 17.68 96.2581 17.972 97.2261 18.556C98.1941 19.14 98.9461 19.948 99.4821 20.98C100.018 22.004 100.286 23.184 100.286 24.52C100.286 25.864 100.014 27.052 99.4701 28.084C98.9341 29.108 98.1821 29.912 97.2141 30.496C96.2461 31.072 95.1141 31.36 93.8181 31.36ZM93.8181 28.648C94.9701 28.648 95.8261 28.264 96.3861 27.496C96.9461 26.728 97.2261 25.736 97.2261 24.52C97.2261 23.264 96.9421 22.264 96.3741 21.52C95.8061 20.768 94.9541 20.392 93.8181 20.392C93.0421 20.392 92.4021 20.568 91.8981 20.92C91.4021 21.264 91.0341 21.748 90.7941 22.372C90.5541 22.988 90.4341 23.704 90.4341 24.52C90.4341 25.776 90.7181 26.78 91.2861 27.532C91.8621 28.276 92.7061 28.648 93.8181 28.648ZM101.261 31V30.604L108.125 20.572H101.957V18.04H112.625V18.448L105.785 28.468H112.337V31H101.261ZM115.498 16.072V13.42H118.39V16.072H115.498ZM115.498 31V18.04H118.39V31H115.498ZM121.985 31V18.04H124.541V21.196L124.229 20.788C124.389 20.356 124.601 19.964 124.865 19.612C125.137 19.252 125.461 18.956 125.837 18.724C126.157 18.508 126.509 18.34 126.893 18.22C127.285 18.092 127.685 18.016 128.093 17.992C128.501 17.96 128.897 17.976 129.281 18.04V20.74C128.897 20.628 128.453 20.592 127.949 20.632C127.453 20.672 127.005 20.812 126.605 21.052C126.205 21.268 125.877 21.544 125.621 21.88C125.373 22.216 125.189 22.6 125.069 23.032C124.949 23.456 124.889 23.916 124.889 24.412V31H121.985ZM131.811 16.072V13.42H134.703V16.072H131.811ZM131.811 31V18.04H134.703V31H131.811Z" fill="#1355FF"/>
<defs>
<clipPath id="clip0_1118_3961">
<rect width="44" height="44" fill="white"/>
</clipPath>
</defs>
</svg>
